<?xml version="1.0" standalone="no"?>
<!DOCTYPE svg PUBLIC "-//W3C//DTD SVG 20010904//EN"
 "http://www.w3.org/TR/2001/REC-SVG-20010904/DTD/svg10.dtd">
<svg version="1.0" xmlns="http://www.w3.org/2000/svg"
 width="512.000000pt" height="512.000000pt" viewBox="0 0 512.000000 512.000000"
 preserveAspectRatio="xMidYMid meet">

<g transform="translate(0.000000,512.000000) scale(0.100000,-0.100000)"
fill="#000000" stroke="none">
<path d="M640 4800 l0 -160 80 0 80 0 0 160 0 160 -80 0 -80 0 0 -160z"/>
<path d="M4320 4800 l0 -160 80 0 80 0 0 160 0 160 -80 0 -80 0 0 -160z"/>
<path d="M560 4320 l0 -160 160 0 160 0 0 160 0 160 -160 0 -160 0 0 -160z"/>
<path d="M4240 4320 l0 -160 160 0 160 0 0 160 0 160 -160 0 -160 0 0 -160z"/>
<path d="M160 4320 l0 -80 120 0 120 0 0 80 0 80 -120 0 -120 0 0 -80z"/>
<path d="M4720 4320 l0 -80 120 0 120 0 0 80 0 80 -120 0 -120 0 0 -80z"/>
<path d="M1040 4145 c0 -134 -11 -145 -145 -145 l-95 0 0 -1440 0 -1440 95 0
c88 0 98 -2 120 -25 23 -22 25 -32 25 -120 l0 -95 813 0 812 0 -55 35 c-111
70 -302 125 -432 125 -91 0 -82 -28 -177 588 -90 583 -89 579 -37 603 20 9
130 -5 568 -72 470 -72 546 -86 564 -104 17 -17 22 -38 27 -110 4 -50 16 -126
27 -170 21 -79 83 -218 119 -264 17 -23 19 -23 42 -7 57 39 67 33 306 -207
265 -265 259 -251 161 -353 l-61 -64 181 0 182 0 0 95 c0 134 11 145 145 145
l95 0 0 1440 0 1440 -95 0 c-88 0 -98 2 -120 25 -23 22 -25 32 -25 120 l0 95
-1520 0 -1520 0 0 -95z m474 -957 c55 -16 138 -99 154 -154 22 -75 12 -146
-30 -206 -19 -28 -19 -28 0 -55 67 -97 54 -211 -33 -298 -63 -64 -100 -75
-244 -75 -105 0 -113 1 -136 25 l-25 24 0 351 0 351 25 24 c23 24 31 25 136
25 61 0 130 -5 153 -12z m560 0 c55 -16 138 -99 154 -154 25 -87 9 -162 -50
-229 l-39 -45 35 -72 c37 -75 66 -184 66 -250 l0 -38 -79 0 -78 0 -6 59 c-12
115 -86 261 -133 261 l-24 0 0 -160 0 -160 -80 0 -80 0 0 375 0 376 25 24 c23
24 31 25 136 25 61 0 130 -5 153 -12z m560 0 c55 -16 138 -99 154 -154 8 -28
12 -134 12 -338 l0 -296 -80 0 -80 0 0 120 0 120 -80 0 -80 0 0 -120 0 -120
-80 0 -80 0 0 296 c0 204 4 310 12 338 15 51 99 137 148 153 48 15 105 15 154
1z m367 2 c11 -6 60 -91 109 -188 l89 -177 0 188 1 187 80 0 80 0 0 -375 0
-376 -25 -24 c-25 -26 -63 -32 -96 -15 -11 6 -60 91 -109 188 l-89 177 0 -187
-1 -188 -80 0 -80 0 0 375 0 376 25 24 c25 26 63 32 96 15z m753 -2 c55 -16
138 -99 154 -154 8 -26 12 -112 12 -234 0 -231 -6 -257 -75 -325 -63 -64 -100
-75 -244 -75 -105 0 -113 1 -136 25 l-25 24 0 351 0 351 25 24 c23 24 31 25
136 25 61 0 130 -5 153 -12z"/>
<path d="M1360 2960 l0 -80 55 0 c67 0 105 29 105 80 0 51 -38 80 -105 80
l-55 0 0 -80z"/>
<path d="M1360 2640 l0 -80 55 0 c67 0 105 29 105 80 0 51 -38 80 -105 80
l-55 0 0 -80z"/>
<path d="M1920 2960 l0 -80 55 0 c67 0 105 29 105 80 0 51 -38 80 -105 80
l-55 0 0 -80z"/>
<path d="M2505 3015 c-23 -22 -25 -32 -25 -120 l0 -95 80 0 80 0 0 95 c0 88
-2 98 -25 120 -15 16 -36 25 -55 25 -19 0 -40 -9 -55 -25z"/>
<path d="M3600 2800 l0 -240 55 0 c46 0 60 4 80 25 25 24 25 26 25 215 0 189
0 191 -25 215 -20 21 -34 25 -80 25 l-55 0 0 -240z"/>
<path d="M2430 1845 c130 -131 197 -190 202 -182 4 7 8 31 8 55 l0 42 81 0 82
0 -6 -70 c-8 -90 -41 -165 -102 -225 -60 -61 -135 -94 -225 -102 l-70 -6 0 82
0 81 43 0 c23 0 47 4 54 8 8 5 -51 72 -182 202 -107 107 -195 188 -195 180 1
-30 107 -701 112 -705 3 -3 45 -12 94 -20 145 -23 280 -76 404 -156 l63 -41
190 190 190 190 -30 43 c-81 117 -145 278 -168 423 -8 49 -17 91 -20 94 -4 5
-675 111 -705 112 -8 0 73 -88 180 -195z"/>
<path d="M3095 1060 l-260 -260 143 -142 142 -143 262 262 263 263 -140 140
c-77 77 -142 140 -145 140 -3 0 -122 -117 -265 -260z"/>
<path d="M560 800 l0 -160 160 0 160 0 0 160 0 160 -160 0 -160 0 0 -160z"/>
<path d="M4240 800 l0 -160 160 0 160 0 0 160 0 160 -160 0 -160 0 0 -160z"/>
<path d="M160 800 l0 -80 120 0 120 0 0 80 0 80 -120 0 -120 0 0 -80z"/>
<path d="M4720 800 l0 -80 120 0 120 0 0 80 0 80 -120 0 -120 0 0 -80z"/>
<path d="M640 320 l0 -160 80 0 80 0 0 160 0 160 -80 0 -80 0 0 -160z"/>
<path d="M4320 320 l0 -160 80 0 80 0 0 160 0 160 -80 0 -80 0 0 -160z"/>
</g>
</svg>
