<?xml version="1.0" standalone="no"?>
<!DOCTYPE svg PUBLIC "-//W3C//DTD SVG 20010904//EN"
 "http://www.w3.org/TR/2001/REC-SVG-20010904/DTD/svg10.dtd">
<svg version="1.0" xmlns="http://www.w3.org/2000/svg"
 width="512.000000pt" height="512.000000pt" viewBox="0 0 512.000000 512.000000"
 preserveAspectRatio="xMidYMid meet">

<g transform="translate(0.000000,512.000000) scale(0.100000,-0.100000)"
fill="#000000" stroke="none">
<path d="M1230 3172 l-30 -30 0 -342 0 -342 30 -30 31 -30 122 4 c99 3 130 8
162 25 85 45 129 117 129 213 0 53 -5 75 -26 113 l-27 47 27 47 c50 90 30 215
-45 284 -55 52 -89 62 -220 67 l-122 4 -31 -30z m265 -157 c16 -15 25 -36 25
-55 0 -51 -38 -80 -105 -80 l-55 0 0 80 0 80 55 0 c46 0 60 -4 80 -25z m0
-320 c16 -15 25 -36 25 -55 0 -51 -38 -80 -105 -80 l-55 0 0 80 0 80 55 0 c46
0 60 -4 80 -25z"/>
<path d="M1790 3172 l-30 -30 0 -371 0 -371 80 0 80 0 0 161 0 160 27 -3 c54
-6 133 -170 133 -274 l0 -44 81 0 82 0 -7 63 c-9 83 -31 158 -68 234 l-31 63
36 39 c87 96 82 247 -10 332 -55 52 -89 62 -220 67 l-122 4 -31 -30z m265
-157 c16 -15 25 -36 25 -55 0 -51 -38 -80 -105 -80 l-55 0 0 80 0 80 55 0 c46
0 60 -4 80 -25z"/>
<path d="M2505 3191 c-70 -18 -125 -63 -161 -131 -17 -32 -19 -65 -22 -347
l-3 -313 80 0 81 0 0 120 0 120 80 0 80 0 0 -120 0 -120 81 0 80 0 -3 313 c-3
341 -4 342 -67 410 -52 57 -153 87 -226 68z m110 -176 c23 -22 25 -32 25 -120
l0 -95 -80 0 -80 0 0 95 c0 88 2 98 25 120 15 16 36 25 55 25 19 0 40 -9 55
-25z"/>
<path d="M2909 3171 l-29 -29 0 -371 0 -371 80 0 80 0 1 193 0 192 92 -182
c90 -179 108 -203 153 -203 9 0 29 13 45 29 l29 29 0 371 0 371 -80 0 -80 0
-1 -192 0 -193 -89 177 c-109 216 -138 242 -201 179z"/>
<path d="M3470 3172 l-30 -30 0 -342 0 -342 30 -30 31 -30 122 4 c134 5 177
19 228 75 62 66 64 78 64 323 0 211 -1 227 -22 265 -25 47 -65 86 -113 111
-26 13 -66 19 -157 22 l-122 4 -31 -30z m265 -157 c25 -24 25 -26 25 -215 0
-189 0 -191 -25 -215 -20 -21 -34 -25 -80 -25 l-55 0 0 240 0 240 55 0 c46 0
60 -4 80 -25z"/>
<path d="M3036 1113 l-318 -315 23 -22 c13 -13 104 -100 201 -196 l177 -173
215 209 c118 115 260 258 317 317 l102 109 -194 194 c-106 107 -196 194 -199
194 -3 -1 -148 -143 -324 -317z"/>
</g>
</svg>
