<?xml version="1.0" standalone="no"?>
<!DOCTYPE svg PUBLIC "-//W3C//DTD SVG 20010904//EN"
 "http://www.w3.org/TR/2001/REC-SVG-20010904/DTD/svg10.dtd">
<svg version="1.0" xmlns="http://www.w3.org/2000/svg"
 width="512.000000pt" height="512.000000pt" viewBox="0 0 512.000000 512.000000"
 preserveAspectRatio="xMidYMid meet">

<g transform="translate(0.000000,512.000000) scale(0.100000,-0.100000)"
fill="#000000" stroke="none">
<path d="M640 4800 l0 -160 -95 0 c-88 0 -98 -2 -120 -25 -23 -22 -25 -32 -25
-120 l0 -95 -120 0 -120 0 0 -80 0 -80 120 0 120 0 0 -95 c0 -88 2 -98 25
-120 22 -23 32 -25 120 -25 l95 0 0 -1440 0 -1440 -95 0 c-88 0 -98 -2 -120
-25 -23 -22 -25 -32 -25 -120 l0 -95 -120 0 -120 0 0 -80 0 -80 120 0 120 0 0
-95 c0 -88 2 -98 25 -120 22 -23 32 -25 120 -25 l95 0 0 -160 0 -160 80 0 80
0 0 160 0 160 95 0 c88 0 98 2 120 25 23 22 25 32 25 120 l0 95 822 0 822 0
201 -200 c182 -181 204 -200 235 -200 31 0 53 19 235 200 l201 200 262 0 262
0 0 -95 c0 -88 2 -98 25 -120 22 -23 32 -25 120 -25 l95 0 0 -160 0 -160 80 0
80 0 0 160 0 160 95 0 c88 0 98 2 120 25 23 22 25 32 25 120 l0 95 120 0 120
0 0 80 0 80 -120 0 -120 0 0 95 c0 134 -11 145 -145 145 l-95 0 0 1440 0 1440
95 0 c88 0 98 2 120 25 23 22 25 32 25 120 l0 95 120 0 120 0 0 80 0 80 -120
0 -120 0 0 95 c0 88 -2 98 -25 120 -22 23 -32 25 -120 25 l-95 0 0 160 0 160
-80 0 -80 0 0 -160 0 -160 -95 0 c-88 0 -98 -2 -120 -25 -23 -22 -25 -32 -25
-120 l0 -95 -1520 0 -1520 0 0 95 c0 88 -2 98 -25 120 -22 23 -32 25 -120 25
l-95 0 0 160 0 160 -80 0 -80 0 0 -160z m240 -480 l0 -160 -160 0 -160 0 0
160 0 160 160 0 160 0 0 -160z m3680 0 l0 -160 -160 0 -160 0 0 160 0 160 160
0 160 0 0 -160z m-480 -175 c0 -88 2 -98 25 -120 22 -23 32 -25 120 -25 l95 0
0 -1440 0 -1440 -95 0 c-134 0 -145 -11 -145 -145 l0 -95 -182 0 -181 0 61 64
c98 102 104 88 -161 353 -239 240 -249 246 -306 207 -23 -16 -25 -16 -42 7
-36 47 -98 185 -119 264 -11 44 -23 118 -26 165 -7 88 -21 124 -51 134 -49 15
-1080 166 -1100 161 -12 -3 -30 -17 -40 -31 -16 -25 -13 -49 67 -572 73 -474
87 -550 105 -568 17 -17 38 -22 108 -27 144 -10 292 -56 402 -125 l50 -32
-812 0 -813 0 0 95 c0 88 -2 98 -25 120 -22 23 -32 25 -120 25 l-95 0 0 1440
0 1440 95 0 c88 0 98 2 120 25 23 22 25 32 25 120 l0 95 1520 0 1520 0 0 -95z
m-1472 -2159 c188 -29 345 -55 347 -58 3 -3 12 -45 20 -94 23 -143 88 -307
168 -423 l30 -43 -191 -190 -190 -191 -43 30 c-123 84 -297 152 -437 171 -41
6 -76 13 -79 16 -6 5 -112 674 -113 706 0 8 88 -73 195 -180 131 -130 190
-197 182 -202 -7 -4 -31 -8 -54 -8 l-43 0 0 -81 0 -82 70 6 c90 8 165 41 225
102 61 60 94 135 102 225 l6 70 -82 0 -81 0 0 -42 c0 -24 -4 -48 -8 -55 -5 -8
-72 51 -202 182 -107 107 -188 195 -180 195 8 -1 169 -25 358 -54z m897 -806
l140 -140 -263 -263 -262 -262 -142 143 -143 142 260 260 c143 143 262 260
265 260 3 0 68 -63 145 -140z m-2625 -380 l0 -160 -160 0 -160 0 0 160 0 160
160 0 160 0 0 -160z m3680 0 l0 -160 -160 0 -160 0 0 160 0 160 160 0 160 0 0
-160z"/>
<path d="M1225 3175 l-25 -24 0 -351 0 -351 25 -24 c23 -24 31 -25 136 -25
144 0 181 11 244 75 87 87 100 201 33 298 -19 27 -19 27 0 55 67 96 54 210
-33 297 -63 64 -100 75 -244 75 -105 0 -113 -1 -136 -25z m270 -160 c16 -15
25 -36 25 -55 0 -51 -38 -80 -105 -80 l-55 0 0 80 0 80 55 0 c46 0 60 -4 80
-25z m0 -320 c16 -15 25 -36 25 -55 0 -51 -38 -80 -105 -80 l-55 0 0 80 0 80
55 0 c46 0 60 -4 80 -25z"/>
<path d="M1785 3175 l-25 -24 0 -376 0 -375 80 0 80 0 0 160 0 160 24 0 c47 0
121 -146 133 -261 l6 -59 78 0 79 0 0 38 c0 66 -29 175 -66 250 l-35 72 39 45
c88 100 83 225 -13 320 -63 64 -100 75 -244 75 -105 0 -113 -1 -136 -25z m270
-160 c16 -15 25 -36 25 -55 0 -51 -38 -80 -105 -80 l-55 0 0 80 0 80 55 0 c46
0 60 -4 80 -25z"/>
<path d="M2480 3187 c-49 -16 -133 -102 -148 -153 -8 -28 -12 -134 -12 -338
l0 -296 80 0 80 0 0 120 0 120 80 0 80 0 0 -120 0 -120 80 0 80 0 0 296 c0
200 -4 310 -12 336 -17 59 -88 133 -145 152 -53 18 -112 19 -163 3z m135 -172
c23 -22 25 -32 25 -120 l0 -95 -80 0 -80 0 0 95 c0 88 2 98 25 120 15 16 36
25 55 25 19 0 40 -9 55 -25z"/>
<path d="M2905 3175 l-25 -24 0 -376 0 -375 80 0 80 0 1 188 0 187 89 -177
c49 -97 98 -182 109 -188 33 -17 71 -11 96 15 l25 24 0 376 0 375 -80 0 -80 0
-1 -187 0 -188 -89 177 c-49 97 -98 182 -109 188 -33 17 -71 11 -96 -15z"/>
<path d="M3465 3175 l-25 -24 0 -351 0 -351 25 -24 c23 -24 31 -25 136 -25
144 0 181 11 244 75 69 68 75 94 75 325 0 231 -6 257 -75 325 -63 64 -100 75
-244 75 -105 0 -113 -1 -136 -25z m270 -160 c25 -24 25 -26 25 -215 0 -189 0
-191 -25 -215 -20 -21 -34 -25 -80 -25 l-55 0 0 240 0 240 55 0 c46 0 60 -4
80 -25z"/>
</g>
</svg>
